<svg xmlns="http://www.w3.org/2000/svg" width="240" height="240" viewBox="0 0 240 240" role="img" aria-label="Illustrated portrait of a smiling rafting guide wearing a life vest">
  <defs>
    <linearGradient id="bg2" x1="0%" y1="0%" x2="100%" y2="100%">
      <stop offset="0%" stop-color="#0f4c5c"/>
      <stop offset="100%" stop-color="#146073"/>
    </linearGradient>
  </defs>
  <rect width="240" height="240" rx="14" fill="url(#bg2)"/>
  <circle cx="120" cy="96" r="46" fill="#f2b98a"/>
  <path d="M76 96c0-30 20-52 44-52s44 22 44 52" fill="none"/>
  <path d="M74 92c-2-34 22-58 46-58s48 24 46 58c-6-14-20-24-46-24s-40 10-46 24z" fill="#3a2a1a"/>
  <circle cx="102" cy="98" r="4" fill="#22333b"/>
  <circle cx="138" cy="98" r="4" fill="#22333b"/>
  <path d="M104 116q16 12 32 0" fill="none" stroke="#7a3b2e" stroke-width="4" stroke-linecap="round"/>
  <path d="M40 232c6-46 40-70 80-70s74 24 80 70z" fill="#ffb703"/>
  <path d="M40 232c6-46 40-70 80-70s74 24 80 70z" fill="#ffb703"/>
  <path d="M90 172l30 26 30-26v14l-30 34-30-34z" fill="#e8f1f2"/>
  <rect x="70" y="188" width="20" height="44" rx="4" fill="#d6742a"/>
  <rect x="150" y="188" width="20" height="44" rx="4" fill="#d6742a"/>
</svg>
